<?xml version="1.0" standalone="no"?>
<!DOCTYPE svg PUBLIC "-//W3C//DTD SVG 20010904//EN"
 "http://www.w3.org/TR/2001/REC-SVG-20010904/DTD/svg10.dtd">
<svg version="1.0" xmlns="http://www.w3.org/2000/svg"
 width="1024.000000pt" height="1024.000000pt" viewBox="0 0 1024.000000 1024.000000"
 preserveAspectRatio="xMidYMid meet">

<g transform="translate(0.000000,1024.000000) scale(0.100000,-0.100000)"
fill="#000000" stroke="none">
<path d="M5015 8921 c-145 -16 -295 -69 -411 -146 -128 -85 -252 -247 -294
-384 -22 -69 -20 -83 8 -58 23 21 134 71 188 86 30 8 43 18 48 34 9 35 101
132 169 176 55 36 159 77 240 95 l27 6 0 -112 c0 -143 -17 -183 -99 -236 -113
-73 -148 -109 -190 -192 -47 -95 -58 -161 -42 -267 15 -98 61 -195 143 -301
35 -45 66 -81 69 -81 3 -1 11 54 18 122 25 253 36 289 107 343 30 23 48 29
103 32 57 2 73 -1 116 -25 77 -43 91 -78 110 -269 8 -87 15 -170 15 -183 0
-24 0 -24 21 -5 41 36 106 129 143 202 118 235 67 467 -132 596 -129 83 -152
126 -152 276 l0 100 28 -6 c56 -12 159 -48 204 -70 69 -35 160 -115 201 -177
32 -47 43 -56 84 -66 26 -7 81 -30 121 -51 l74 -38 -7 36 c-3 20 -24 74 -46
119 -69 145 -240 301 -412 377 -127 56 -307 82 -452 67z m34 -446 c-23 -57
-60 -95 -157 -159 -54 -35 -115 -83 -135 -105 -20 -23 -37 -35 -37 -28 0 28
79 103 171 163 125 81 139 106 139 253 0 63 5 111 13 124 10 19 12 4 15 -98 2
-75 -2 -130 -9 -150z m154 -347 c49 -15 112 -70 139 -122 15 -29 23 -66 26
-126 5 -101 -9 -100 -19 1 -5 55 -13 79 -35 112 -70 99 -202 135 -308 83 -55
-27 -99 -74 -117 -124 -5 -16 -16 -62 -23 -103 l-14 -74 -1 62 c-2 120 36 214
105 260 76 50 152 59 247 31z"/>
<path d="M3640 8373 c-74 -36 -136 -66 -138 -67 -1 -2 7 -56 18 -120 11 -65
20 -122 20 -127 0 -6 -209 -155 -256 -182 -6 -4 -53 31 -104 78 -50 47 -95 85
-100 85 -4 0 -14 -7 -21 -16 -8 -9 -60 -55 -116 -101 l-102 -84 18 -52 c10
-28 33 -82 51 -118 l33 -67 -89 -98 c-49 -53 -105 -115 -124 -136 l-35 -40
-107 62 c-59 34 -112 59 -118 55 -21 -13 -182 -266 -177 -278 3 -7 36 -51 75
-98 l70 -85 -75 -150 c-42 -82 -76 -150 -77 -150 0 -1 -53 7 -116 17 -158 25
-155 25 -167 -13 -6 -18 -27 -78 -46 -133 -57 -164 -62 -143 54 -216 88 -55
99 -66 95 -85 -15 -57 -55 -254 -60 -295 l-7 -46 -72 -2 c-82 -1 -155 -10
-161 -20 -5 -7 -22 -158 -31 -272 l-6 -76 62 -27 c34 -16 79 -31 100 -33 30
-4 39 -10 39 -24 0 -12 -7 -19 -18 -19 -40 0 -113 -33 -156 -71 l-45 -39 -380
2 c-290 2 -381 0 -381 -9 0 -6 4 -14 9 -18 11 -6 281 -372 479 -649 l121 -168
-44 -62 c-24 -33 -117 -167 -207 -296 -89 -129 -202 -290 -250 -358 -48 -68
-88 -127 -88 -130 0 -4 169 -6 376 -4 l376 3 41 -41 c23 -22 62 -50 87 -63 44
-21 54 -22 435 -25 l389 -3 81 -72 c214 -192 797 -747 867 -826 47 -53 78
-124 78 -178 0 -25 16 -35 86 -53 30 -7 48 -20 65 -45 54 -80 228 -142 283
-100 18 14 16 18 -49 91 -38 42 -77 81 -87 87 -20 13 -24 27 -7 27 6 0 29 14
50 31 l39 30 72 -60 c39 -34 75 -61 80 -61 5 0 16 16 25 36 15 30 15 38 3 57
-7 12 -31 56 -52 98 -21 42 -45 82 -53 89 -8 6 -56 22 -106 35 -106 27 -131
46 -157 120 l-18 50 -69 18 c-39 10 -83 26 -98 36 -37 23 -597 569 -597 582 0
5 58 9 131 9 153 0 122 17 318 -168 75 -71 195 -182 266 -249 72 -66 239 -228
372 -359 234 -232 242 -242 281 -324 34 -75 40 -97 45 -180 19 -332 262 -546
597 -526 159 9 262 56 365 167 99 107 166 287 152 407 -5 40 0 59 33 129 30
65 56 100 127 174 78 81 655 639 838 811 136 127 116 118 259 118 78 0 126 -4
126 -10 0 -6 -129 -140 -287 -299 l-288 -290 -85 -25 -85 -26 -18 -51 c-26
-71 -52 -95 -123 -108 -147 -29 -137 -22 -199 -138 -53 -101 -64 -143 -45
-173 12 -20 43 -2 114 65 l54 52 44 -34 c23 -19 46 -38 50 -41 4 -4 -29 -45
-72 -91 -44 -45 -80 -88 -80 -95 0 -20 46 -36 82 -29 68 13 176 72 213 117 31
38 43 45 86 51 55 8 63 17 73 83 15 99 46 136 400 470 138 130 329 312 424
404 l172 167 380 1 c434 0 446 2 539 86 l49 44 376 -2 c207 -2 376 -1 376 1 0
2 -92 134 -203 295 -365 521 -389 556 -385 564 2 5 42 62 91 128 48 65 182
250 297 409 l211 290 -381 3 c-229 1 -380 6 -380 12 0 20 -97 82 -152 97 -61
17 -79 43 -30 44 15 0 59 13 97 28 l70 29 -3 63 c-4 85 -23 293 -27 298 -2 2
-54 6 -115 9 -102 4 -111 6 -114 26 -8 39 -66 301 -72 321 -4 18 11 31 95 84
56 34 101 68 101 75 0 11 -72 229 -95 289 -9 22 -33 21 -165 -2 -58 -11 -105
-19 -106 -18 -1 1 -36 70 -79 153 l-79 150 79 92 78 93 -94 139 c-52 77 -98
140 -102 140 -5 0 -56 -25 -114 -56 -57 -30 -108 -54 -113 -52 -8 3 -240 256
-240 262 0 2 13 33 30 69 16 36 38 88 49 117 l19 51 -75 62 c-42 34 -97 79
-122 99 l-45 38 -46 -43 c-95 -91 -135 -127 -143 -127 -4 0 -68 41 -143 91
-103 68 -134 94 -130 107 3 9 13 60 21 112 9 52 18 102 21 111 3 11 -16 25
-68 51 -90 45 -188 88 -199 88 -6 0 -100 -119 -156 -199 -2 -3 -20 3 -39 13
-20 9 -38 16 -39 14 -2 -3 -14 -135 -15 -165 0 -7 -28 1 -72 22 -95 43 -297
110 -423 139 -130 30 -165 37 -165 30 0 -3 11 -24 24 -47 14 -23 32 -66 41
-94 14 -42 22 -53 39 -53 61 0 322 -85 451 -147 69 -33 95 -40 95 -25 1 30 18
31 81 6 173 -70 372 -190 542 -326 135 -107 378 -351 457 -458 62 -84 107
-166 96 -177 -3 -3 -59 46 -124 108 -66 63 -156 141 -202 174 -45 33 -119 87
-164 119 l-81 59 75 -82 c416 -458 621 -777 786 -1225 67 -181 106 -344 134
-549 17 -128 24 -117 -85 -117 -52 0 -95 1 -95 3 -1 1 -3 20 -6 42 -21 157
-75 400 -107 477 l-14 33 0 -45 c0 -29 2 -38 7 -25 5 14 8 8 13 -25 3 -25 9
-60 13 -79 l7 -33 -47 3 c-25 2 -46 1 -46 -3 0 -19 -26 -1 -32 22 -3 14 -4 -6
-1 -45 3 -47 1 -65 -5 -55 -14 21 -52 183 -48 206 2 10 1 13 -1 5 -3 -8 -18
22 -33 67 -56 164 -196 437 -312 610 -158 235 -475 535 -756 717 -109 70 -283
156 -423 209 -68 26 -132 52 -141 57 -14 7 -26 -2 -60 -46 -65 -83 -146 -137
-287 -191 l-84 -31 69 -7 c111 -12 312 -55 409 -88 267 -91 508 -245 744 -473
269 -261 454 -551 556 -872 33 -104 72 -293 77 -370 l4 -63 -142 0 -142 0 -4
238 c-3 235 -3 237 -30 288 -26 50 -193 217 -253 253 -14 9 -25 19 -25 22 0 4
20 12 45 18 84 21 155 52 155 67 0 29 -52 84 -104 109 -46 22 -179 55 -225 55
-17 0 -17 -5 -6 -67 7 -38 16 -77 20 -88 17 -43 -60 57 -165 215 -145 218
-208 298 -238 304 -45 8 -118 16 -302 31 -275 23 -1032 14 -1289 -14 -107 -12
-196 -22 -197 -24 -20 -27 -131 -186 -214 -311 -60 -88 -119 -172 -130 -186
l-22 -25 6 31 c3 17 8 54 12 83 l7 51 -29 0 c-49 0 -186 -39 -231 -66 -24 -14
-55 -43 -70 -65 -32 -49 -33 -48 90 -88 l89 -28 -109 -96 c-194 -172 -193
-170 -193 -478 l0 -229 -145 0 c-132 0 -145 2 -145 18 0 54 24 201 50 298 135
520 483 988 957 1286 224 141 521 241 787 264 l78 7 -94 31 c-115 38 -193 87
-275 174 l-62 65 -128 -47 c-466 -174 -837 -456 -1159 -881 -181 -239 -322
-537 -419 -880 -22 -79 -28 -64 -9 25 4 20 3 22 -5 10 -6 -8 -11 -24 -11 -35
0 -11 -4 -27 -9 -34 -7 -10 -8 0 -5 30 3 34 2 38 -5 19 -9 -24 -9 -24 -10 -2
-1 13 -8 22 -18 23 -56 4 -75 17 -69 48 5 19 4 22 -3 11 -21 -35 -91 -360 -91
-425 0 -3 -45 -5 -100 -5 l-101 0 7 53 c77 625 336 1166 828 1727 56 63 117
130 136 149 41 41 33 36 -75 -38 -111 -76 -201 -151 -332 -275 -62 -58 -115
-106 -118 -106 -3 0 -5 10 -5 23 0 54 225 338 386 486 203 187 466 360 693
456 l65 27 17 -23 17 -23 78 36 c124 56 267 107 384 136 108 27 108 27 119 63
6 20 24 61 41 93 30 56 30 56 8 56 -69 0 -341 -81 -526 -156 -74 -30 -136 -54
-139 -54 -3 0 -3 40 -1 90 3 96 2 98 -51 70 -10 -5 -35 20 -87 90 -40 54 -76
100 -81 102 -4 3 -69 -24 -143 -59z m412 -1140 c35 -31 10 -93 -37 -93 -46 0
-64 52 -30 86 28 28 42 30 67 7z m2189 -4 c20 -20 19 -48 -3 -76 -16 -20 -55
-15 -72 9 -21 30 -20 44 4 68 25 25 45 25 71 -1z m-3462 -194 c41 -20 81 -72
81 -103 0 -14 -9 -45 -20 -68 -22 -44 -72 -74 -126 -74 -43 0 -91 29 -108 65
-56 117 61 238 173 180z m4808 -5 c43 -26 66 -63 66 -108 0 -86 -63 -139 -152
-129 -36 4 -52 13 -78 41 -28 31 -33 43 -33 87 0 46 4 55 39 90 33 33 45 39
82 39 26 0 57 -8 76 -20z m-2027 -240 c102 -5 223 -12 269 -16 l83 -7 43 -66
c44 -69 101 -178 129 -246 l16 -40 -31 35 c-17 19 -65 80 -106 135 -42 55 -79
104 -83 108 -9 10 -179 32 -370 47 -80 6 -271 9 -470 6 -317 -4 -414 -10 -607
-37 l-82 -11 -96 -129 c-145 -193 -148 -188 -31 36 l84 160 89 8 c293 26 830
34 1163 17z m-2210 -280 c11 -11 20 -27 20 -35 0 -21 -36 -55 -59 -55 -21 0
-51 35 -51 59 0 21 30 51 52 51 10 0 27 -9 38 -20z m3600 0 c11 -11 20 -24 20
-29 0 -44 -49 -70 -86 -46 -31 20 -31 59 -2 79 30 21 44 20 68 -4z m-3140 -50
c0 -5 -12 -12 -27 -15 -16 -4 -65 -19 -110 -35 -96 -34 -111 -25 -25 13 83 38
162 56 162 37z m2767 -31 c17 -5 37 -17 45 -26 11 -15 11 -16 -7 -8 -57 24
-122 44 -142 45 -28 0 -53 10 -53 20 0 8 94 -11 157 -31z m-4141 -32 c54 -47
24 -127 -47 -127 -80 0 -95 115 -19 143 27 10 39 7 66 -16z m5448 -2 c35 -33
35 -78 -1 -111 -33 -30 -67 -26 -100 12 -30 33 -29 69 2 99 31 32 65 32 99 0z
m-2396 -30 c223 -7 430 -27 617 -61 203 -36 229 -46 325 -118 84 -63 195 -167
125 -117 -41 29 -126 51 -200 51 -44 0 -91 -11 -173 -39 -62 -21 -111 -37
-110 -36 24 22 156 104 196 123 29 13 52 26 50 28 -6 5 -345 -82 -454 -117
-55 -17 -128 -44 -164 -60 l-65 -29 41 38 c67 60 149 103 241 127 47 12 81 25
77 28 -17 10 -343 26 -659 33 -425 8 -1105 -17 -1055 -39 8 -3 44 -17 80 -30
63 -22 152 -77 215 -132 21 -18 23 -23 8 -16 -55 27 -230 85 -362 121 -273 73
-304 81 -307 77 -2 -2 15 -14 39 -27 49 -28 193 -130 183 -130 -4 0 -19 6 -34
14 -54 27 -212 67 -269 68 -41 1 -70 -5 -98 -20 -49 -26 -75 -46 -75 -58 0 -5
91 -32 203 -61 180 -47 477 -127 517 -140 8 -3 10 -7 4 -9 -6 -3 -116 18 -245
46 -129 28 -281 60 -339 71 -58 11 -129 25 -158 32 l-53 12 83 82 c89 88 177
159 218 175 88 34 357 78 600 99 166 14 568 27 710 23 58 -2 188 -6 288 -9z
m1124 -342 c26 -23 23 -30 -19 -37 -21 -4 -119 -25 -218 -46 -364 -80 -518
-111 -534 -108 -9 2 20 14 64 26 44 13 141 41 215 63 156 45 438 118 459 119
8 0 23 -7 33 -17z m-3502 -22 c17 -32 12 -60 -14 -76 -19 -13 -29 -14 -45 -5
-30 16 -44 46 -31 69 18 35 73 42 90 12z m4095 -1 c23 -25 13 -67 -20 -82 -52
-23 -100 46 -59 86 21 22 57 20 79 -4z m-3617 -68 c7 -5 17 -52 23 -119 l12
-111 76 -32 c42 -18 80 -36 84 -40 5 -4 -39 4 -97 18 -71 18 -107 31 -110 42
-10 33 -18 250 -10 250 5 0 15 -4 22 -8z m3071 -49 c-1 -32 -4 -91 -8 -132
l-6 -75 -90 -22 c-49 -13 -91 -21 -94 -19 -2 3 5 8 15 11 10 4 42 17 70 30
l51 22 8 106 c5 73 12 111 22 121 26 26 33 16 32 -42z m-891 -70 c19 -21 62
-81 97 -133 l64 -95 -21 -72 c-13 -42 -28 -73 -35 -73 -17 0 -16 13 6 75 l18
50 -86 112 -86 113 -613 0 -612 0 -84 -112 -84 -113 13 -40 c6 -22 15 -50 19
-62 6 -19 4 -23 -12 -23 -17 0 -23 13 -38 75 -21 90 -23 86 97 241 l75 99 625
-2 624 -3 33 -37z m-1914 -8 c89 -25 196 -51 239 -58 l78 -13 -66 -42 c-36
-23 -73 -42 -81 -42 -19 0 -260 68 -300 85 -29 12 -32 18 -35 64 -2 28 -2 51
0 51 2 0 76 -20 165 -45z m2675 -7 c-5 -28 -12 -55 -16 -59 -5 -5 -77 -27
-161 -49 l-153 -42 -64 38 c-69 40 -79 54 -42 54 12 0 114 25 227 54 113 30
208 54 211 55 3 1 2 -22 -2 -51z m-809 -128 c5 -8 10 -17 10 -20 0 -7 -1170
-11 -1202 -4 -24 5 -26 9 -17 26 10 19 25 19 605 16 516 -3 596 -5 604 -18z
m1687 -42 c-3 -8 -6 -5 -6 6 -1 11 2 17 5 13 3 -3 4 -12 1 -19z m-1620 -50 c7
-5 10 -14 7 -19 -6 -10 -1306 -11 -1343 0 -20 5 -21 8 -9 18 20 17 235 21 837
16 333 -2 499 -7 508 -15z m1630 -15 c-3 -10 -5 -4 -5 12 0 17 2 24 5 18 2 -7
2 -21 0 -30z m-3636 -68 c85 -20 159 -37 164 -39 6 -3 -67 -5 -161 -5 l-172
-1 -4 40 c-2 24 1 40 7 40 6 0 81 -16 166 -35z m2833 -2 c-4 -21 -8 -39 -9
-41 -1 -1 -78 -1 -171 0 l-169 3 165 37 c91 20 171 36 178 37 10 1 11 -9 6
-36z m821 17 c3 -5 1 -10 -4 -10 -6 0 -11 5 -11 10 0 6 2 10 4 10 3 0 8 -4 11
-10z m-1667 -13 c21 -2 22 -4 8 -22 -14 -20 -26 -20 -666 -21 -611 0 -652 1
-661 17 -5 10 -9 20 -9 23 0 10 1223 13 1328 3z m1747 -42 c6 -2 -11 -4 -37
-4 -27 -1 -48 3 -48 7 0 7 62 5 85 -3z m659 -225 c45 -16 132 -93 159 -139
l18 -31 -3241 0 -3241 0 12 22 c21 39 99 116 137 134 29 14 71 20 187 24 83 3
1451 6 3040 5 2504 0 2895 -2 2929 -15z m-290 -378 c86 -40 162 -116 206 -205
102 -208 2 -477 -208 -558 -79 -31 -227 -38 -308 -14 -111 32 -213 119 -261
223 -75 160 -44 339 81 466 87 88 192 127 332 122 78 -3 102 -8 158 -34z
m-4922 -372 c102 -201 187 -368 187 -372 1 -5 -59 -8 -131 -8 l-133 0 -25 48
-25 47 -166 3 -165 2 -24 -50 -23 -50 -145 0 -144 0 37 68 c21 37 103 191 182
342 80 151 154 290 165 308 l20 33 102 -3 101 -3 187 -365z m529 258 c1 -62 1
-123 1 -135 -1 -13 1 -23 4 -23 3 0 69 61 147 135 l142 135 159 0 159 0 -49
-42 c-27 -24 -116 -103 -197 -177 l-149 -134 183 -186 c101 -102 187 -187 192
-189 4 -2 7 -8 7 -13 0 -5 -71 -9 -165 -9 -129 0 -166 3 -172 14 -4 7 -50 62
-102 121 l-93 107 -31 -30 c-29 -29 -30 -32 -28 -121 l2 -91 -125 0 -126 0 0
375 0 375 120 0 120 0 1 -112z m1748 -218 c91 -179 178 -347 193 -373 l27 -48
-142 3 -142 3 -25 47 -25 48 -162 0 -162 0 -28 -50 -28 -50 -138 0 c-76 0
-137 3 -135 8 8 18 246 462 365 680 l34 63 101 -3 101 -3 166 -325z m511 101
c0 -220 1 -229 23 -261 47 -70 143 -90 227 -47 77 39 81 52 81 311 l0 226 125
0 125 0 -3 -267 -3 -268 -27 -50 c-32 -58 -58 -89 -109 -127 -140 -107 -411
-106 -547 2 -60 47 -88 84 -118 159 -22 53 -24 68 -24 304 l0 247 125 0 125 0
0 -229z m1430 114 l0 -115 -120 0 -120 0 0 -260 0 -260 -120 0 -120 0 0 260 0
260 -125 0 -125 0 0 115 0 115 365 0 365 0 0 -115z m-2760 -330 l0 -75 -155 0
-155 0 0 75 0 75 155 0 155 0 0 -75z m3910 -512 c0 -4 -16 -31 -35 -59 -46
-66 -109 -101 -207 -114 -42 -5 -492 -10 -1051 -10 l-977 0 -103 -51 c-115
-58 -267 -117 -373 -144 l-72 -18 5 -121 c5 -116 -5 -200 -43 -351 -6 -26 7
-17 112 72 65 56 192 169 281 253 l163 151 161 6 162 6 -89 -85 c-498 -475
-625 -581 -754 -634 -93 -38 -125 -39 -213 -10 -125 43 -315 34 -417 -19 -27
-14 -35 -13 -116 14 -137 46 -205 99 -658 510 l-238 216 162 3 162 3 102 -98
c115 -111 458 -414 463 -409 2 2 -7 46 -21 97 -30 117 -39 222 -28 319 5 41 8
76 7 77 -1 2 -48 17 -106 34 -121 36 -281 99 -359 143 l-55 31 -1050 5 c-1156
6 -1075 1 -1161 66 -31 24 -94 103 -94 118 0 3 1449 6 3220 6 1771 0 3220 -3
3220 -7z m-4455 -478 c33 -31 50 -51 37 -45 -13 6 -53 41 -90 77 -78 76 -36
50 53 -32z m2504 13 c-41 -37 -78 -68 -84 -68 -5 0 24 34 65 75 40 40 78 71
84 68 5 -4 -24 -37 -65 -75z m-2663 -25 c33 -15 71 -27 85 -29 64 -4 109 -42
420 -353 339 -339 359 -365 359 -457 l0 -50 -182 181 c-101 99 -311 306 -468
458 -156 152 -282 277 -278 277 3 0 32 -12 64 -27z m-577 -21 c11 -4 126 -106
256 -226 295 -273 318 -292 380 -312 81 -27 103 -42 131 -89 41 -71 65 -85
144 -85 52 0 73 -4 93 -20 25 -20 112 -144 124 -178 6 -16 -10 2 -113 126 -33
39 -39 42 -84 42 -86 0 -182 -84 -196 -172 -5 -28 -11 -38 -25 -38 -20 0 -29
17 -48 87 -19 71 -89 148 -397 443 -164 157 -334 320 -379 363 l-80 79 87 -6
c47 -3 95 -9 107 -14z m3919 -189 c-356 -344 -564 -557 -596 -607 -17 -27 -36
-73 -42 -102 -6 -30 -15 -54 -20 -54 -5 0 -15 -3 -23 -6 -11 -4 -16 5 -21 33
-20 108 -86 170 -190 180 -42 4 -66 2 -70 -6 -4 -6 -1 -11 9 -11 19 0 109 -57
147 -93 32 -32 45 -96 28 -138 -14 -33 -31 -40 -23 -9 4 15 -4 11 -33 -16 -55
-51 -104 -88 -109 -82 -6 5 103 110 128 125 13 7 16 15 10 30 -13 35 -73 101
-124 138 -47 34 -49 34 -59 14 -13 -23 -110 -132 -110 -123 0 10 96 158 119
182 18 20 29 22 97 21 89 -2 113 11 154 82 26 44 43 56 147 101 52 23 88 55
476 428 l119 115 95 -3 94 -3 -203 -196z m-623 117 c-16 -16 -25 -30 -20 -30
10 0 -165 -179 -430 -439 -290 -284 -325 -320 -326 -334 -1 -6 -4 2 -8 18 -4
17 -5 49 -3 73 4 39 14 52 136 172 108 107 133 127 142 115 6 -8 14 -15 18
-15 16 0 394 345 474 433 19 20 37 37 40 37 3 0 -7 -13 -23 -30z m-455 -383
c0 -2 -10 -12 -22 -23 l-23 -19 19 23 c18 21 26 27 26 19z m-735 -219 c69 -18
149 -65 200 -119 l50 -53 -58 52 c-59 52 -97 66 -97 36 0 -9 16 -51 35 -94 19
-43 35 -85 35 -95 0 -9 10 -49 21 -87 28 -91 22 -175 -19 -262 -34 -73 -84
-123 -167 -168 -56 -31 -66 -33 -157 -33 -90 0 -117 -6 -85 -18 6 -3 0 -6 -14
-6 -40 -1 -140 54 -194 106 -64 63 -121 181 -130 269 -34 310 265 553 580 472z
m-1115 -121 c0 -4 -4 -6 -10 -2 -17 10 -134 -98 -144 -135 -8 -27 -7 -35 5
-39 18 -6 129 -111 129 -123 0 -5 -26 11 -57 35 -70 53 -89 64 -79 49 4 -7 1
-12 -8 -12 -21 0 -30 39 -24 101 4 41 12 57 42 88 21 21 55 44 77 50 21 7 39
17 39 24 1 13 30 -22 30 -36z m72 -102 c6 -11 -6 -2 -25 20 -20 22 -36 45 -36
50 0 11 45 -40 61 -70z"/>
<path d="M7651 4640 c-96 -22 -155 -134 -120 -227 14 -38 57 -83 96 -99 42
-18 117 -18 151 0 31 16 74 61 91 93 25 49 8 135 -38 187 -35 40 -116 61 -180
46z"/>
<path d="M2633 4478 c-55 -114 -57 -108 36 -108 45 0 81 2 81 5 0 8 -80 165
-84 165 -2 0 -17 -28 -33 -62z"/>
<path d="M4920 4458 l-39 -83 81 -3 c44 -2 82 -1 85 2 5 5 -75 166 -83 166 -3
0 -23 -37 -44 -82z"/>
<path d="M5035 3545 c-73 -25 -135 -118 -135 -201 0 -112 96 -213 201 -214 44
0 110 22 151 51 38 27 78 111 78 164 0 44 -37 131 -66 157 -59 52 -153 70
-229 43z"/>
<path d="M3815 3340 c16 -16 31 -27 34 -24 5 5 -47 54 -57 54 -3 0 7 -13 23
-30z"/>
<path d="M3870 3287 c0 -2 15 -16 33 -33 l32 -29 -29 33 c-28 30 -36 37 -36
29z"/>
<path d="M4529 2622 c6 -12 16 -24 22 -28 8 -4 8 -1 0 14 -6 12 -16 24 -22 28
-8 4 -8 1 0 -14z"/>
<path d="M3726 2749 c-17 -24 -12 -41 22 -86 30 -40 63 -43 97 -9 22 22 23 28
14 55 -6 17 -21 38 -32 46 -32 22 -83 19 -101 -6z m75 -47 c-11 -20 -51 -37
-51 -21 0 5 11 15 25 21 14 6 25 16 25 21 0 6 3 8 6 5 3 -4 1 -15 -5 -26z"/>
<path d="M6368 2729 c-10 -34 -8 -40 17 -73 15 -20 33 -36 40 -36 19 0 85 77
85 98 0 33 -31 51 -83 49 -46 -2 -48 -4 -59 -38z m26 6 c-4 -8 -8 -15 -10 -15
-2 0 -4 7 -4 15 0 8 4 15 10 15 5 0 7 -7 4 -15z m59 -33 c16 -17 16 -19 -1
-17 -22 1 -42 13 -42 26 0 15 26 10 43 -9z"/>
<path d="M5909 2883 c-1 -5 -2 -12 -4 -18 -1 -5 -3 -16 -3 -23 -1 -7 -13 -17
-26 -24 -27 -12 -43 -37 -22 -34 21 3 83 79 68 84 -6 2 -10 8 -6 13 3 5 3 9 0
9 -3 0 -7 -3 -7 -7z"/>
<path d="M5876 2843 c-6 -14 -5 -15 5 -6 7 7 10 15 7 18 -3 3 -9 -2 -12 -12z"/>
<path d="M5803 2764 c3 -4 -4 -15 -16 -25 -12 -10 -17 -18 -10 -19 16 0 44 30
38 41 -4 5 -9 9 -12 9 -4 0 -4 -3 0 -6z"/>
<path d="M5719 2663 c-13 -16 -12 -17 4 -4 9 7 17 15 17 17 0 8 -8 3 -21 -13z"/>
<path d="M5145 2540 c-13 -14 -25 -18 -49 -13 -17 3 -35 10 -40 14 -17 15 -36
10 -73 -18 -20 -16 -54 -37 -77 -48 -30 -15 -42 -27 -44 -45 -7 -76 -26 -128
-48 -139 -37 -16 -41 -55 -10 -92 36 -42 57 -96 54 -134 -3 -27 2 -32 42 -52
25 -12 57 -34 71 -49 22 -22 33 -26 58 -21 18 4 41 1 58 -8 15 -8 43 -15 60
-15 26 0 34 5 39 25 5 19 13 25 33 25 15 0 37 8 51 17 13 9 40 19 59 23 34 5
36 8 34 40 -3 65 8 99 43 141 39 47 41 79 6 94 -25 11 -42 58 -42 118 0 34 -4
39 -51 65 -28 15 -69 42 -91 60 -46 37 -58 39 -83 12z m34 -92 c42 -15 51 -25
51 -55 0 -19 4 -22 28 -17 24 5 29 1 46 -40 18 -46 17 -56 -6 -87 -11 -16 -8
-30 14 -60 9 -13 6 -26 -16 -64 -20 -34 -31 -44 -39 -36 -17 17 -37 13 -37 -8
0 -24 -19 -39 -60 -47 -25 -5 -35 -3 -42 9 -12 22 -34 22 -46 1 -7 -13 -18
-15 -46 -10 -20 4 -37 11 -37 16 -1 6 -3 15 -4 20 -1 6 -3 17 -4 25 -1 11 -8
14 -25 9 -20 -5 -27 0 -40 25 -20 37 -20 70 -2 77 24 9 26 31 6 55 -14 15 -18
30 -13 48 12 52 23 64 54 57 27 -5 29 -4 29 28 0 29 4 36 33 45 28 10 34 9 49
-9 22 -27 36 -25 48 5 11 29 12 29 59 13z m-289 -39 c0 -6 -4 -7 -10 -4 -5 3
-10 11 -10 16 0 6 5 7 10 4 6 -3 10 -11 10 -16z"/>
<path d="M4014 2558 l-19 -21 28 18 c28 18 33 25 19 25 -5 0 -17 -10 -28 -22z"/>
<path d="M7451 6080 c0 -8 4 -22 9 -30 12 -18 12 -2 0 25 -6 13 -9 15 -9 5z"/>
<path d="M7466 6013 c-6 -14 -5 -15 5 -6 7 7 10 15 7 18 -3 3 -9 -2 -12 -12z"/>
<path d="M2726 5945 c-9 -26 -7 -32 5 -12 6 10 9 21 6 23 -2 3 -7 -2 -11 -11z"/>
<path d="M7410 5829 c0 -5 5 -7 10 -4 6 3 10 8 10 11 0 2 -4 4 -10 4 -5 0 -10
-5 -10 -11z"/>
<path d="M1634 3374 c-10 -20 -33 -46 -51 -57 l-34 -20 30 -18 c16 -10 40 -31
52 -48 l22 -31 19 31 c10 16 32 38 48 47 35 20 37 28 9 37 -11 4 -33 27 -49
52 l-28 44 -18 -37z"/>
<path d="M8537 3364 c-11 -23 -29 -40 -53 -50 l-36 -15 33 -17 c19 -9 43 -31
54 -49 11 -18 22 -32 25 -33 3 0 13 14 22 30 9 16 31 38 48 48 l31 19 -34 21
c-19 11 -41 34 -48 51 -8 17 -16 31 -20 31 -3 0 -13 -16 -22 -36z"/>
<path d="M2235 3233 c10 -16 56 -81 103 -146 95 -132 95 -111 4 -211 -53 -58
-53 -58 -36 -85 109 -166 169 -251 180 -251 7 0 57 22 110 50 l97 49 123 -117
122 -117 -28 -50 c-28 -49 -60 -143 -60 -175 0 -8 13 -23 28 -32 16 -9 67 -46
115 -82 48 -37 92 -66 98 -66 13 0 53 32 127 102 l52 50 128 -83 c70 -45 131
-85 135 -90 5 -4 0 -44 -11 -90 -11 -46 -23 -105 -26 -130 l-5 -47 57 -23 c31
-12 87 -37 124 -56 37 -18 74 -33 82 -33 15 0 131 138 149 177 6 13 13 22 17
21 6 -3 186 -72 230 -89 25 -10 25 -10 25 -133 0 -69 2 -127 6 -130 5 -6 265
-66 285 -66 11 0 104 187 104 209 0 6 6 9 13 7 6 -3 48 -7 92 -10 l80 -6 -54
36 c-80 54 -181 161 -225 237 -24 42 -47 69 -60 72 -368 81 -619 189 -944 407
-317 212 -675 559 -869 842 l-58 85 -164 1 -163 0 17 -27z"/>
<path d="M7593 3143 c-125 -170 -213 -272 -370 -426 -158 -156 -251 -235 -402
-341 -320 -225 -587 -352 -894 -427 l-138 -34 -31 -57 c-41 -77 -126 -169
-212 -230 l-71 -50 55 6 c30 4 69 9 85 12 29 5 31 3 55 -62 29 -78 78 -167 88
-160 4 2 54 14 112 26 58 12 122 26 143 31 l37 10 0 129 c0 72 1 130 3 130 2
0 59 20 128 45 113 42 125 44 134 29 17 -29 126 -173 134 -179 5 -2 69 26 142
63 l134 67 -3 35 c-2 19 -10 67 -18 105 -8 39 -17 80 -19 92 -4 18 8 29 78 69
45 26 106 65 135 86 l53 39 52 -49 c73 -70 113 -102 127 -102 6 0 57 34 113
75 153 114 139 95 118 157 -10 29 -32 81 -48 115 l-29 62 118 118 118 117 111
-58 c102 -54 112 -57 122 -41 5 10 47 74 93 142 46 68 84 126 84 129 0 3 -29
38 -65 76 -36 39 -65 75 -65 80 0 6 21 38 48 72 45 58 130 176 146 204 6 9
-28 12 -153 12 l-161 0 -87 -117z"/>
</g>
</svg>
