<svg width="32" height="32" viewBox="0 0 32 32" fill="none" xmlns="http://www.w3.org/2000/svg">
<rect width="32" height="32" fill="white" fill-opacity="0.01"/>
<path fill-rule="evenodd" clip-rule="evenodd" d="M29.3337 15.9998C29.3337 23.3636 23.3641 29.3332 16.0003 29.3332C8.63653 29.3332 2.66699 23.3636 2.66699 15.9998C2.66699 8.63604 8.63653 2.6665 16.0003 2.6665C23.3641 2.6665 29.3337 8.63604 29.3337 15.9998ZM12.5102 14.7584C12.6729 14.8283 12.82 14.9299 12.943 15.0572L14.667 16.7812L19.0577 12.3905C19.1807 12.2632 19.3278 12.1616 19.4904 12.0917C19.6531 12.0219 19.8281 11.9851 20.0051 11.9835C20.1822 11.982 20.3577 12.0157 20.5216 12.0828C20.6855 12.1498 20.8343 12.2488 20.9595 12.374C21.0847 12.4992 21.1837 12.6481 21.2508 12.8119C21.3178 12.9758 21.3515 13.1514 21.35 13.3284C21.3485 13.5054 21.3117 13.6804 21.2418 13.8431C21.1719 14.0057 21.0703 14.1529 20.943 14.2759L15.6097 19.6092C15.3596 19.8592 15.0205 19.9996 14.667 19.9996C14.3134 19.9996 13.9744 19.8592 13.7243 19.6092L11.0577 16.9425C10.9303 16.8195 10.8287 16.6724 10.7589 16.5097C10.689 16.3471 10.6522 16.1721 10.6507 15.9951C10.6491 15.818 10.6829 15.6425 10.7499 15.4786C10.8169 15.3147 10.9159 15.1659 11.0411 15.0407C11.1663 14.9155 11.3152 14.8165 11.479 14.7494C11.6429 14.6824 11.8185 14.6487 11.9955 14.6502C12.1726 14.6517 12.3475 14.6885 12.5102 14.7584Z" fill="#2F855A"/>
</svg>
