<svg width="18" height="18" viewBox="0 0 18 18" fill="none" xmlns="http://www.w3.org/2000/svg">
<path d="M16.6431 1.35515C17.1185 1.82919 17.119 2.59832 16.6444 3.07305L11.0007 8.7169C10.8445 8.8731 10.8445 9.12635 11.0007 9.28256L16.6444 14.9269C17.0795 15.3621 17.1153 16.0447 16.7521 16.5205L16.6431 16.6448C16.1678 17.1189 15.3977 17.1183 14.9231 16.6436L9.28186 11.0009C9.12563 10.8446 8.87226 10.8446 8.71605 11.001L3.07692 16.6436C2.60229 17.1183 1.8322 17.1189 1.35687 16.6448C0.88154 16.1708 0.880971 15.4017 1.3556 14.9269L6.99856 9.28254C7.15472 9.12634 7.15472 8.87312 6.99854 8.71692L1.3556 3.07305C0.920524 2.63788 0.884745 1.95533 1.24793 1.47947L1.35687 1.35515C1.8322 0.88112 2.60229 0.881688 3.07692 1.35642L8.7161 6.99728C8.8723 7.15352 9.12559 7.15354 9.28182 6.99733L14.9231 1.35642C15.3977 0.881688 16.1678 0.88112 16.6431 1.35515Z" fill="#252A31" stroke="#252A31" stroke-width="0.5"/>
</svg>
