<svg width="24" height="24" viewBox="0 0 24 24" fill="none" xmlns="http://www.w3.org/2000/svg">
<path d="M7.26562 6.23421C7.16075 6.12969 7.07753 6.0055 7.02075 5.86875C6.96397 5.73201 6.93474 5.5854 6.93474 5.43733C6.93474 5.28927 6.96397 5.14266 7.02075 5.00591C7.07753 4.86917 7.16075 4.74497 7.26562 4.64046L11.2031 0.702957C11.3076 0.598078 11.4318 0.514861 11.5686 0.45808C11.7053 0.401299 11.8519 0.37207 12 0.37207C12.1481 0.37207 12.2947 0.401299 12.4314 0.45808C12.5682 0.514861 12.6924 0.598078 12.7969 0.702957L16.7344 4.64046C16.8393 4.74497 16.9225 4.86917 16.9793 5.00591C17.036 5.14266 17.0653 5.28927 17.0653 5.43733C17.0653 5.5854 17.036 5.73201 16.9793 5.86875C16.9225 6.0055 16.8393 6.12969 16.7344 6.23421C16.5221 6.44375 16.2358 6.56124 15.9375 6.56124C15.6392 6.56124 15.3529 6.44375 15.1406 6.23421L13.125 4.21858V11.9998C13.125 12.2982 13.0065 12.5843 12.7955 12.7953C12.5845 13.0063 12.2984 13.1248 12 13.1248C11.7016 13.1248 11.4155 13.0063 11.2045 12.7953C10.9935 12.5843 10.875 12.2982 10.875 11.9998V4.21858L8.85938 6.23421C8.75486 6.33909 8.63067 6.4223 8.49392 6.47909C8.35717 6.53587 8.21057 6.56509 8.0625 6.56509C7.91443 6.56509 7.76783 6.53587 7.63108 6.47909C7.49433 6.4223 7.37014 6.33909 7.26562 6.23421ZM18.75 8.24983H16.5C16.2016 8.24983 15.9155 8.36836 15.7045 8.57934C15.4935 8.79032 15.375 9.07646 15.375 9.37483C15.375 9.6732 15.4935 9.95935 15.7045 10.1703C15.9155 10.3813 16.2016 10.4998 16.5 10.4998H18.375V19.1248H5.625V10.4998H7.5C7.79837 10.4998 8.08452 10.3813 8.2955 10.1703C8.50647 9.95935 8.625 9.6732 8.625 9.37483C8.625 9.07646 8.50647 8.79032 8.2955 8.57934C8.08452 8.36836 7.79837 8.24983 7.5 8.24983H5.25C4.75348 8.2523 4.278 8.45063 3.9269 8.80173C3.5758 9.15283 3.37746 9.62831 3.375 10.1248V19.4998C3.37746 19.9964 3.5758 20.4718 3.9269 20.8229C4.278 21.174 4.75348 21.3724 5.25 21.3748H18.75C19.2465 21.3724 19.722 21.174 20.0731 20.8229C20.4242 20.4718 20.6225 19.9964 20.625 19.4998V10.1248C20.6225 9.62831 20.4242 9.15283 20.0731 8.80173C19.722 8.45063 19.2465 8.2523 18.75 8.24983Z" fill="white"/>
</svg>
