<svg width="128" height="135" viewBox="0 0 128 135" fill="none" xmlns="http://www.w3.org/2000/svg">
<path d="M70.3001 109.7C98.3001 109.7 121 87.0001 121 58.9001C121 30.8001 98.2001 8.1001 70.3001 8.1001C42.3001 8.1001 19.6001 30.8001 19.6001 58.9001C19.6001 87.0001 42.3001 109.7 70.3001 109.7Z" fill="#EAEEF9"/>
<path d="M117.7 25.5999C119.964 25.5999 121.8 23.7643 121.8 21.4999C121.8 19.2355 119.964 17.3999 117.7 17.3999C115.436 17.3999 113.6 19.2355 113.6 21.4999C113.6 23.7643 115.436 25.5999 117.7 25.5999Z" fill="#EAEEF9"/>
<path d="M123.7 9.6C125.246 9.6 126.5 8.3464 126.5 6.8C126.5 5.2536 125.246 4 123.7 4C122.154 4 120.9 5.2536 120.9 6.8C120.9 8.3464 122.154 9.6 123.7 9.6Z" fill="#EAEEF9"/>
<path d="M22.3 25.4999C23.8464 25.4999 25.1 24.2463 25.1 22.6999C25.1 21.1535 23.8464 19.8999 22.3 19.8999C20.7536 19.8999 19.5 21.1535 19.5 22.6999C19.5 24.2463 20.7536 25.4999 22.3 25.4999Z" fill="#EAEEF9"/>
<path d="M5.2 79.5001C8.07188 79.5001 10.4 77.172 10.4 74.3001C10.4 71.4282 8.07188 69.1001 5.2 69.1001C2.32812 69.1001 0 71.4282 0 74.3001C0 77.172 2.32812 79.5001 5.2 79.5001Z" fill="#EAEEF9"/>
<g filter="url(#filter0_d_18710_110871)">
<path d="M104.8 33.5L105.6 97.9C105.6 100.1 103.8 101.8 101.6 101.8H38.7998C36.5998 101.8 34.7998 100 34.7998 97.9V15.1C34.7998 12.9 36.5998 11.2 38.7998 11.2H84.2998L104.8 33.5Z" fill="url(#paint0_linear_18710_110871)"/>
</g>
<path d="M65.4002 88.9H63.1002C62.6002 88.9 62.2002 88.4 62.2002 87.8C62.2002 87.2 62.6002 86.7 63.1002 86.7H65.4002C65.9002 86.7 66.3002 87.2 66.3002 87.8C66.3002 88.5 65.9002 88.9 65.4002 88.9Z" fill="#CED7E2"/>
<path d="M58.4001 88.9H45.0001C44.5001 88.9 44.1001 88.4 44.1001 87.8C44.1001 87.2 44.5001 86.7 45.0001 86.7H58.4001C58.9001 86.7 59.3001 87.2 59.3001 87.8C59.3001 88.5 58.9001 88.9 58.4001 88.9Z" fill="#D5DDEA"/>
<path d="M75.5001 24.7001H45.4001C44.7001 24.7001 44.1001 24.1001 44.1001 23.4001C44.1001 22.7001 44.7001 22.1001 45.4001 22.1001H75.5001C76.2001 22.1001 76.8001 22.7001 76.8001 23.4001C76.8001 24.1001 76.2001 24.7001 75.5001 24.7001Z" fill="#D5DDEA"/>
<path d="M57.0001 31.9H45.4001C44.7001 31.9 44.1001 31.3001 44.1001 30.6C44.1001 29.9 44.7001 29.3 45.4001 29.3H56.9001C57.6001 29.3 58.2001 29.9 58.2001 30.6C58.2001 31.3001 57.6001 31.9 57.0001 31.9Z" fill="#D5DDEA"/>
<path d="M84.2998 11.2V29C84.2998 31.5 86.4998 33.5 88.9998 33.5H104.8" fill="#D5DDEA"/>
<path d="M109.6 103.3C108.6 103.3 107.6 102.9 106.8 102L90.1 85.3L89.5 85.6999C84.1 89.6999 77.8 91.8 71.4 91.8C63.7 91.8 56 88.7 50.3 83.3C44.3 77.6 41 69.8999 41 61.5C41 44.7999 54.6 31.2 71.3 31.2C82.7 31.2 92.7 37.2 98.1 47.4C103.4 57.5 102.7 69.3 96.2 78.8L95.8 79.4L112.6 96.2C114.3 97.8999 113.9 99.6 113.6 100.5C112.8 102.1 111.2 103.3 109.6 103.3ZM71.3 39.5C59.1 39.5 49.3 49.4 49.3 61.5C49.3 75.2999 60.6 83.5999 71.6 83.5999C78.3 83.5999 84.4 80.5999 88.7 75.1999C94 68.5999 94.9 59.7 91.2 52C87.4 44.3 79.8 39.5 71.3 39.5Z" fill="#989FB0"/>
<defs>
<filter id="filter0_d_18710_110871" x="12.7998" y="0.199951" width="114.8" height="134.6" filterUnits="userSpaceOnUse" color-interpolation-filters="sRGB">
<feFlood flood-opacity="0" result="BackgroundImageFix"/>
<feColorMatrix in="SourceAlpha" type="matrix" values="0 0 0 0 0 0 0 0 0 0 0 0 0 0 0 0 0 0 127 0" result="hardAlpha"/>
<feOffset dy="11"/>
<feGaussianBlur stdDeviation="11"/>
<feColorMatrix type="matrix" values="0 0 0 0 0.397708 0 0 0 0 0.47749 0 0 0 0 0.575 0 0 0 0.27 0"/>
<feBlend mode="normal" in2="BackgroundImageFix" result="effect1_dropShadow_18710_110871"/>
<feBlend mode="normal" in="SourceGraphic" in2="effect1_dropShadow_18710_110871" result="shape"/>
</filter>
<linearGradient id="paint0_linear_18710_110871" x1="70.1767" y1="9.10429" x2="70.1767" y2="102.777" gradientUnits="userSpaceOnUse">
<stop stop-color="#FDFEFF"/>
<stop offset="0.9964" stop-color="#ECF0F5"/>
</linearGradient>
</defs>
</svg>
